<svg width="544" height="270" viewBox="0 0 544 270" fill="none" xmlns="http://www.w3.org/2000/svg">
<path d="M0.800003 264V5.19999H150C184.667 5.19999 210.933 11.0667 228.8 22.8C246.933 34.2667 256 51.4667 256 74.4C256 89.0667 252.4 100.667 245.2 109.2C238 117.467 227.733 123.6 214.4 127.6C201.333 131.6 185.867 134.133 168 135.2L169.6 132.4C182.667 132.667 194.933 133.6 206.4 135.2C218.133 136.8 228.4 139.733 237.2 144C246 148.267 252.933 154.267 258 162C263.067 169.467 265.6 179.333 265.6 191.6C265.6 207.6 261.333 220.933 252.8 231.6C244.267 242 232.4 249.867 217.2 255.2C202 260.533 184.4 263.467 164.4 264H0.800003ZM54 220H158.8C175.6 220 188.533 217.333 197.6 212C206.667 206.4 211.2 197.6 211.2 185.6C211.2 176.8 208.533 170.4 203.2 166.4C197.867 162.4 190.8 160 182 159.2C173.2 158.133 163.733 157.6 153.6 157.6H54V220ZM54 114.8H148C164.8 114.8 177.733 112.4 186.8 107.6C195.867 102.533 200.4 94 200.4 82C200.4 70 195.867 61.6 186.8 56.8C177.733 51.7333 165.733 49.2 150.8 49.2H54V114.8Z" fill="#FFFBFB"/>
<path d="M295.709 176.8H349.709C350.776 185.867 354.909 194.133 362.109 201.6C369.576 208.8 379.309 214.533 391.309 218.8C403.309 222.8 416.776 224.8 431.709 224.8C445.309 224.8 456.509 223.333 465.309 220.4C474.109 217.467 480.643 213.333 484.909 208C489.176 202.667 491.309 196.267 491.309 188.8C491.309 181.6 488.643 176.133 483.309 172.4C477.976 168.4 469.576 165.2 458.109 162.8C446.643 160.133 431.576 157.467 412.909 154.8C398.243 152.667 384.376 149.733 371.309 146C358.243 142 346.643 136.933 336.509 130.8C326.643 124.667 318.776 117.2 312.909 108.4C307.309 99.3333 304.509 88.6667 304.509 76.4C304.509 61.2 308.776 47.8667 317.309 36.4C326.109 24.9333 339.043 16 356.109 9.59999C373.176 3.19999 394.109 -1.04904e-05 418.909 -1.04904e-05C456.243 -1.04904e-05 484.909 7.99999 504.909 24C525.176 39.7333 535.043 61.4667 534.509 89.2H482.509C481.443 73.4667 474.776 62.1333 462.509 55.2C450.509 48.2667 435.309 44.8 416.909 44.8C399.843 44.8 385.709 47.3333 374.509 52.4C363.576 57.4666 358.109 66.1333 358.109 78.4C358.109 83.2 359.443 87.4667 362.109 91.2C364.776 94.6667 369.309 97.7333 375.709 100.4C382.109 103.067 390.776 105.6 401.709 108C412.643 110.4 426.243 112.8 442.509 115.2C457.709 117.333 471.443 120.267 483.709 124C496.243 127.467 506.909 132.133 515.709 138C524.776 143.6 531.709 150.8 536.509 159.6C541.309 168.4 543.709 179.2 543.709 192C543.709 207.733 539.576 221.467 531.309 233.2C523.309 244.667 510.776 253.6 493.709 260C476.909 266.4 455.043 269.6 428.109 269.6C408.909 269.6 391.976 267.6 377.309 263.6C362.643 259.333 349.976 253.733 339.309 246.8C328.643 239.867 319.976 232.267 313.309 224C306.643 215.733 301.843 207.467 298.909 199.2C296.243 190.933 295.176 183.467 295.709 176.8Z" fill="#4CFF6A"/>
</svg>
